#!OML:ASF X:\für Bonn\!DataBase\2005_08_11_Bastian_Final\c3d\Bastian.ASF
:FULLY-SPECIFIED
:DEGREES
91
root 0.0521569 6.97636 6.50457 165.387 -6.89277 -174.508
lowerback 34.1505 -1.45482 4.64331
upperback 7.9312 -2.59219 1.85848
thorax -8.58113 -2.34288 0.618246
lowerneck -11.7041 -5.32844 -3.79734
upperneck -12.893 -7.94004 11.0086
head -1.53369 -4.75714 4.11666
rclavicle -1.29086e-014 -9.79014e-015
rhumerus 69.6409 10.0416 3.76863
rradius 39.612
rwrist -55.3713
rhand -45.7026 -4.08019
rfingers 7.12502
rthumb -18.4596 -33.2243
lclavicle -1.29086e-014 -9.79014e-015
lhumerus 63.3379 -14.5384 -11.4915
lradius 32.9371
lwrist 9.60408
lhand -46.6684 18.2749
lfingers 7.12502
lthumb -19.3884 47.3283
rfemur 4.96907 -78.0091 -42.2022
rtibia 156.586
rfoot -54.7535 5.38562
rtoes 12.0568
lfemur -63.4471 48.9927 -0.0723948
ltibia 158.555
lfoot -45.6937 -26.2692
ltoes -3.86368
92
root 0.0577472 7.14127 6.53717 165.692 -6.87385 -174.55
lowerback 34.2526 -1.44137 4.67199
upperback 7.92378 -2.56471 1.85179
thorax -8.62705 -2.33227 0.590896
lowerneck -11.779 -5.29987 -3.73319
upperneck -12.9406 -7.91889 11.0079
head -1.54158 -4.75554 4.10478
rclavicle 1.37907e-014 4.32357e-015
rhumerus 69.6324 9.89811 3.75738
rradius 39.5941
rwrist -55.2452
rhand -45.7996 -3.99923
rfingers 7.12502
rthumb -18.5529 -33.1345
lclavicle 1.37907e-014 4.32357e-015
lhumerus 63.5248 -14.6148 -11.837
lradius 32.939
lwrist 10.1098
lhand -46.7938 18.1984
lfingers 7.12502
lthumb -19.509 47.2397
rfemur -22.2179 -75.4732 -14.2504
rtibia 155.315
rfoot -53.7639 5.30625
rtoes 10.674
lfemur -63.7985 45.9444 -1.54435
ltibia 157.21
lfoot -45.4114 -25.8669
ltoes -4.33924
93
root 0.0633249 7.31443 6.57068 165.981 -6.84927 -174.536
lowerback 34.3831 -1.43473 4.72938
upperback 7.90216 -2.53073 1.87935
thorax -8.69755 -2.31994 0.584044
lowerneck -11.8172 -5.2636 -3.67732
upperneck -12.9869 -7.88342 10.9822
head -1.55707 -4.74483 4.08772
rclavicle 1.81391e-015 -1.62506e-014
rhumerus 69.6546 9.74042 3.89179
rradius 39.6054
rwrist -55.159
rhand -45.8974 -3.98465
rfingers 7.12502
rthumb -18.647 -33.1109
lclavicle 1.81391e-015 -1.62506e-014
lhumerus 63.712 -14.712 -12.3034
lradius 33.0091
lwrist 10.9516
lhand -46.9714 18.0307
lfingers 7.12502
lthumb -19.6798 47.0545
rfemur -38.7217 -70.5675 3.09924
rtibia 153.967
rfoot -52.5903 5.07359
rtoes 9.32587
lfemur -64.0452 42.9136 -2.78963
ltibia 155.814
lfoot -44.9966 -25.3819
ltoes -5.08566
94
root 0.0682204 7.4951 6.60452 166.226 -6.82483 -174.565
lowerback 34.5407 -1.42302 4.77544
upperback 7.90424 -2.50425 1.87398
thorax -8.75304 -2.31345 0.551639
lowerneck -11.8846 -5.22953 -3.59691
upperneck -13.0003 -7.85304 10.9646
head -1.55664 -4.73571 4.06608
rclavicle 7.30534e-015 1.94312e-014
rhumerus 69.6332 9.54031 4.02907
rradius 39.6394
rwrist -54.972
rhand -46.0319 -4.08495
rfingers 7.12502
rthumb -18.7764 -33.1987
lclavicle 7.30534e-015 1.94312e-014
lhumerus 63.9258 -14.768 -12.8725
lradius 33.0992
lwrist 11.8683
lhand -47.1089 17.8757
lfingers 7.12502
lthumb -19.812 46.886
rfemur -47.3311 -64.8595 12.4314
rtibia 152.57
rfoot -51.3313 4.77996
rtoes 7.85238
lfemur -64.0655 39.8241 -3.95672
ltibia 154.334
lfoot -44.5091 -24.8068
ltoes -5.73267
95
root 0.0731597 7.68369 6.63773 166.451 -6.81584 -174.573
lowerback 34.7734 -1.4287 4.85791
upperback 7.83976 -2.4851 1.86304
thorax -8.78811 -2.31333 0.51504
lowerneck -11.9423 -5.18851 -3.51444
upperneck -13.0429 -7.81584 10.9526
head -1.56809 -4.72608 4.04811
rclavicle -1.66482e-015 -2.98177e-014
rhumerus 69.5838 9.30692 4.13353
rradius 39.6917
rwrist -54.7406
rhand -46.152 -4.25992
rfingers 7.12502
rthumb -18.8919 -33.3625
lclavicle -1.66482e-015 -2.98177e-014
lhumerus 64.128 -14.7661 -13.4649
lradius 33.1894
lwrist 12.808
lhand -47.298 17.6966
lfingers 7.12502
lthumb -19.9937 46.688
rfemur -52.2589 -58.9304 18.0576
rtibia 151.107
rfoot -49.9724 4.48083
rtoes 6.65505
lfemur -63.9589 36.7745 -4.97852
ltibia 152.797
lfoot -43.9529 -24.1377
ltoes -6.63161
96
root 0.0783237 7.8776 6.67108 166.667 -6.80064 -174.603
lowerback 34.9418 -1.41168 4.89486
upperback 7.85271 -2.4581 1.86645
thorax -8.83496 -2.30838 0.49662
lowerneck -12.0027 -5.14735 -3.42136
upperneck -13.0731 -7.77896 10.9161
head -1.57634 -4.71521 4.01888
rclavicle -2.87865e-014 3.12837e-014
rhumerus 69.5609 9.08145 4.2013
rradius 39.6981
rwrist -54.4141
rhand -46.29 -4.4358
rfingers 7.12502
rthumb -19.0246 -33.5254
lclavicle -2.87865e-014 3.12837e-014
lhumerus 64.3088 -14.7263 -13.8479
lradius 33.2162
lwrist 13.4676
lhand -47.4155 17.5661
lfingers 7.12502
lthumb -20.1066 46.5457
rfemur -55.0754 -53.3864 21.5099
rtibia 149.61
rfoot -48.6138 4.07558
rtoes 5.55594
lfemur -63.765 33.804 -5.95236
ltibia 151.206
lfoot -43.3776 -23.3025
ltoes -7.8077
97
root 0.0826289 8.07625 6.70284 166.86 -6.78739 -174.621
lowerback 35.0946 -1.40416 4.95193
upperback 7.87874 -2.44101 1.86343
thorax -8.86171 -2.30914 0.463428
lowerneck -12.0845 -5.11053 -3.34382
upperneck -13.0537 -7.74277 10.8965
head -1.56272 -4.70023 3.99543
rclavicle -8.7838e-015 1.36167e-014
rhumerus 69.5272 8.84633 4.18504
rradius 39.7238
rwrist -54.0544
rhand -46.4168 -4.64972
rfingers 7.12502
rthumb -19.1466 -33.7273
lclavicle -8.7838e-015 1.36167e-014
lhumerus 64.4479 -14.6372 -14.0973
lradius 33.1947
lwrist 13.8985
lhand -47.5379 17.4022
lfingers 7.12502
lthumb -20.2244 46.3694
rfemur -56.684 -48.3969 23.7218
rtibia 148.067
rfoot -47.2898 3.64594
rtoes 4.36922
lfemur -63.476 31.0037 -6.79787
ltibia 149.581
lfoot -42.7428 -22.4169
ltoes -9.09179
98
root 0.0865288 8.27989 6.73423 167.061 -6.79355 -174.673
lowerback 35.2313 -1.39554 4.97059
upperback 7.90218 -2.43399 1.86764
thorax -8.88511 -2.3133 0.461134
lowerneck -12.1439 -5.07105 -3.30071
upperneck -13.0411 -7.69727 10.8833
head -1.55421 -4.67923 3.98225
rclavicle 9.18137e-015 1.1455e-014
rhumerus 69.5396 8.61066 4.09369
rradius 39.7153
rwrist -53.718
rhand -46.5404 -4.77478
rfingers 7.12502
rthumb -19.2654 -33.8405
lclavicle 9.18137e-015 1.1455e-014
lhumerus 64.5478 -14.5153 -14.2061
lradius 33.1158
lwrist 14.0815
lhand -47.6098 17.316
lfingers 7.12502
lthumb -20.2935 46.2758
rfemur -57.6446 -43.9883 25.2003
rtibia 146.499
rfoot -45.9844 3.20447
rtoes 3.31653
lfemur -63.1449 28.194 -7.65228
ltibia 147.892
lfoot -42.0014 -21.5281
ltoes -10.13
99
root 0.0900874 8.48693 6.76371 167.243 -6.81392 -174.739
lowerback 35.3669 -1.39385 4.99419
upperback 7.91996 -2.43289 1.84333
thorax -8.91568 -2.31845 0.428246
lowerneck -12.1694 -5.0294 -3.20859
upperneck -13.0251 -7.65178 10.8655
head -1.55218 -4.65965 3.95953
rclavicle 1.65488e-014 1.58034e-014
rhumerus 69.5259 8.39852 3.91204
rradius 39.7007
rwrist -53.3809
rhand -46.6457 -4.87333
rfingers 7.12502
rthumb -19.3666 -33.9289
lclavicle 1.65488e-014 1.58034e-014
lhumerus 64.6461 -14.3722 -14.193
lradius 32.9941
lwrist 13.9882
lhand -47.621 17.2873
lfingers 7.12502
lthumb -20.3042 46.246
rfemur -58.1021 -40.2291 26.131
rtibia 144.904
rfoot -44.744 2.84764
rtoes 2.34286
lfemur -62.73 25.5882 -8.46014
ltibia 146.171
lfoot -41.3486 -20.4355
ltoes -11.6409
100
root 0.0940072 8.69447 6.79157 167.433 -6.83806 -174.829
lowerback 35.465 -1.38773 4.98415
upperback 7.936 -2.43647 1.81921
thorax -8.93448 -2.32365 0.413166
lowerneck -12.1759 -4.98871 -3.11751
upperneck -13.0105 -7.60627 10.8312
head -1.55436 -4.6393 3.93198
rclavicle 3.61664e-014 -3.91854e-014
rhumerus 69.5246 8.20487 3.66449
rradius 39.6919
rwrist -53.056
rhand -46.7159 -4.89173
rfingers 7.12502
rthumb -19.4341 -33.9405
lclavicle 3.61664e-014 -3.91854e-014
lhumerus 64.7143 -14.1945 -14.0183
lradius 32.7969
lwrist 13.5861
lhand -47.5764 17.293
lfingers 7.12502
lthumb -20.2613 46.2562
rfemur -58.2804 -37.0261 26.7581
rtibia 143.305
rfoot -43.5408 2.4333
rtoes 1.38935
lfemur -62.3029 23.1409 -9.22224
ltibia 144.429
lfoot -40.631 -19.3533
ltoes -13.1064
101
root 0.0970266 8.90497 6.81743 167.619 -6.86821 -174.914
lowerback 35.5302 -1.38584 4.98643
upperback 7.96235 -2.44335 1.81373
thorax -8.92904 -2.33121 0.41093
lowerneck -12.218 -4.96079 -3.12932
upperneck -12.9657 -7.56402 10.8294
head -1.53495 -4.61381 3.93207
rclavicle 1.59649e-014 -5.57839e-015
rhumerus 69.5674 8.00239 3.35888
rradius 39.6404
rwrist -52.6914
rhand -46.752 -4.87397
rfingers 7.12502
rthumb -19.4688 -33.9193
lclavicle 1.59649e-014 -5.57839e-015
lhumerus 64.7449 -13.9827 -13.6682
lradius 32.5881
lwrist 13.0117
lhand -47.5033 17.3954
lfingers 7.12502
lthumb -20.1911 46.3661
rfemur -58.2371 -34.2487 27.1794
rtibia 141.671
rfoot -42.3453 2.04433
rtoes 0.431002
lfemur -61.7717 20.8736 -9.89253
ltibia 142.65
lfoot -39.9064 -18.3802
ltoes -14.1618
